<svg width="48" height="48" viewBox="0 0 48 48" fill="none" xmlns="http://www.w3.org/2000/svg">
<circle opacity="0.5" cx="24" cy="24" r="24" fill="black"/>
<path fill-rule="evenodd" clip-rule="evenodd" d="M27.6456 22.9386L26.03 21H21.9668L20.3513 22.9386L23.9984 26.5858L27.6456 22.9386ZM28.9984 23L26.4984 20H21.4984L18.9984 23L23.9984 28L28.9984 23Z" fill="white"/>
<path d="M24.8422 14.537C24.6646 14.8154 24.3531 15 23.9984 15C23.4461 15 22.9984 14.5523 22.9984 14C22.9984 13.4477 23.4461 13 23.9984 13C24.3836 13 24.7179 13.2178 24.885 13.5369C30.2691 13.987 34.4984 18.4996 34.4984 24C34.4984 29.799 29.7974 34.5 23.9984 34.5C18.6277 34.5 14.1988 30.4677 13.5739 25.2654L11.6911 27.6498L10.9062 27.0301L13.8454 23.308L17.5675 26.2471L16.9478 27.0319L14.5676 25.1525C15.1364 29.8557 19.1418 33.5 23.9984 33.5C29.2451 33.5 33.4984 29.2467 33.4984 24C33.4984 19.0376 29.6937 14.9639 24.8422 14.537Z" fill="white"/>
</svg>
