<svg width="24" height="22" viewBox="0 0 24 22" fill="none" xmlns="http://www.w3.org/2000/svg">
<path fill-rule="evenodd" clip-rule="evenodd" d="M12 21.5L24 5L18 0.5H6L0 5L12 21.5ZM13.6566 17.522L22.3999 5.5H17.0914L13.6566 17.522ZM16.0514 5.5L12 19.68L7.94858 5.5H16.0514ZM17.3771 4.5H21.6667L18.1341 1.85059L17.3771 4.5ZM16.4609 4.06689L17.1943 1.5H13.7718L16.4609 4.06689ZM12.3235 1.5L15.4663 4.5H8.53366L11.6765 1.5H12.3235ZM10.2282 1.5H6.80572L7.53912 4.06689L10.2282 1.5ZM6.62285 4.5L5.86588 1.85059L2.33333 4.5H6.62285ZM1.60013 5.5H6.90856L10.3434 17.522L1.60013 5.5Z" fill="white"/>
</svg>
