<svg width="21" height="21" viewBox="0 0 21 21" fill="none" xmlns="http://www.w3.org/2000/svg">
<path fill-rule="evenodd" clip-rule="evenodd" d="M0.0261067 20.3299C-0.0141625 20.451 -0.00784575 20.5819 0.045057 20.6987C0.0975649 20.8156 0.191526 20.908 0.309176 20.9583C0.42722 21.009 0.559082 21.0138 0.680284 20.9717L6.47866 18.9282C6.54972 18.9026 6.61605 18.861 6.67053 18.8075L20.0608 5.46778C20.6665 4.86213 21.0001 4.05748 21.0001 3.20248C21.0001 2.34749 20.6665 1.54284 20.0608 0.937188C19.4536 0.332715 18.6459 0 17.7872 0C16.9285 0 16.1208 0.333109 15.5132 0.937581L2.12129 14.2765C2.06602 14.3319 2.02338 14.4004 1.99811 14.4747L0.0261067 20.3299ZM16.2361 1.65532C16.6514 1.24434 17.2025 1.01781 17.788 1.01781C18.3735 1.01781 18.9242 1.24395 19.3399 1.65492C19.7529 2.06944 19.9799 2.61846 19.9799 3.2013C19.9799 3.78415 19.7529 4.33317 19.3407 4.7469L18.8097 5.27507L15.7054 2.1831L16.2361 1.65532ZM3.31634 14.5254L14.9838 2.90359L18.0873 5.99635L6.3085 17.7279L3.20461 14.6367L3.31634 14.5254ZM2.70519 15.5767L5.3756 18.2384L1.32775 19.6644L2.70519 15.5767Z" fill="black"/>
</svg>
