<svg width="24" height="24" viewBox="0 0 24 24" fill="none" xmlns="http://www.w3.org/2000/svg">
<path d="M21.9251 0H1.346C0.640436 0 0.0688477 0.593 0.0688477 1.325V22.676C0.0688477 23.407 0.640436 24 1.346 24H12.4259V14.706H9.41089V11.084H12.4259V8.413C12.4259 5.313 14.2506 3.625 16.9167 3.625C18.1939 3.625 19.2908 3.724 19.6108 3.768V7.008L17.7621 7.009C16.3124 7.009 16.0319 7.724 16.0319 8.772V11.085H19.4893L19.0392 14.707H16.0319V24H21.927C22.6307 24 23.2023 23.407 23.2023 22.675V1.325C23.2023 0.593 22.6307 0 21.9251 0V0Z" fill="white"/>
</svg>
