<svg width="16" height="16" viewBox="0 0 24 24" fill="none" xmlns="http://www.w3.org/2000/svg">
<path fill-rule="evenodd" clip-rule="evenodd" d="M12.001 22.499L19.7376 14.7149C19.7918 14.6609 19.8633 14.5925 19.9488 14.5105C21.0374 13.468 24.4175 10.2307 23.9572 6.56898C23.5251 3.1311 18.9929 -0.342673 14.5251 2.61944C13.8947 3.03737 13.1853 3.7284 12.6543 4.31756C12.3738 4.62882 12.143 4.91166 12 5.11076C11.857 4.91166 11.6262 4.62882 11.3457 4.31756C10.8147 3.7284 10.1053 3.03737 9.47492 2.61945C5.00709 -0.342673 0.474922 3.1311 0.0427951 6.56898C-0.417462 10.2307 2.96261 13.468 4.05117 14.5105C4.13674 14.5925 4.20816 14.6609 4.26243 14.7149L12.001 22.499ZM12.0009 21.0805L4.97161 14.0098L4.96758 14.0058C4.90443 13.943 4.82529 13.8671 4.73309 13.7786C4.22396 13.29 3.31664 12.4194 2.50412 11.2685C1.53718 9.89897 0.832604 8.3038 1.03499 6.69369C1.20578 5.33493 2.22153 3.87104 3.71486 3.0772C5.15498 2.31165 7.01132 2.18592 8.92235 3.45291C9.75228 4.00314 10.8178 5.17896 11.1878 5.69413L12 6.82495L12.8122 5.69413C13.1822 5.17896 14.2477 4.00314 15.0777 3.45291C16.9887 2.18592 18.845 2.31165 20.2851 3.0772C21.7785 3.87104 22.7942 5.33493 22.965 6.69369C23.1674 8.3038 22.4628 9.89897 21.4959 11.2685C20.6834 12.4194 19.7761 13.29 19.2669 13.7786C19.1747 13.8671 19.0956 13.943 19.0324 14.0058L12.0009 21.0805Z" fill="black"/>
</svg>