<svg width="104" height="32" viewBox="0 0 104 32" fill="none" xmlns="http://www.w3.org/2000/svg">
<path d="M99.1206 27.656C97.9808 29.6975 95.815 31.6363 92.1217 31.6363C87.357 31.6363 84.2109 28.0551 84.2109 22.3868C84.2109 16.7983 88.3031 11.7573 94.5155 11.7573C96.2823 11.7573 97.8554 12.1565 99.075 12.818V4.54926C99.075 3.2947 98.2543 2.57618 97.3424 2.10857V2.02874L101.036 0.375V26.8234C101.036 29.2983 101.469 29.6975 102.768 30.2449V30.3248L99.2688 31.5109V27.656H99.1206ZM99.0864 26.869V17.973C99.0864 13.6049 96.3735 12.4644 93.9684 12.4644C89.6368 12.4644 86.4907 16.3193 86.4907 21.6797C86.4907 27.0401 89.329 30.3019 93.2616 30.3019C95.7808 30.2905 97.8212 28.8763 99.0864 26.869Z" fill="white"/>
<path d="M80.7596 7.48026C79.8591 7.48026 79.1523 6.77314 79.1523 5.86073C79.1523 4.94833 79.8591 4.24121 80.7596 4.24121C81.6601 4.24121 82.3668 4.94833 82.3668 5.86073C82.3782 6.76174 81.6715 7.48026 80.7596 7.48026Z" fill="white"/>
<path d="M79.1163 30.9635C79.8686 29.5835 79.9826 28.4088 79.9826 26.3559V16.5931C79.9826 15.1333 79.1619 14.2665 78.25 13.6848V13.605L81.9432 11.5635V26.3217C81.9432 28.4088 81.9774 29.5835 82.8096 30.9635V31.0434H79.1163V30.9635Z" fill="white"/>
<path d="M72.5636 28.8299C71.1844 30.2898 68.9046 31.6242 66.3512 31.6242C63.5585 31.6242 61.7461 30.1301 61.7461 27.6096C61.7461 23.0019 68.0839 20.9946 72.5636 20.5613V16.9344C72.5636 14.8473 71.5833 12.9198 68.1181 12.9198C65.9523 12.9198 63.9917 13.7068 62.6124 14.6534L62.4186 14.3797C63.9917 12.8058 66.3968 11.7451 69.2693 11.7451C73.6351 11.7451 74.547 14.0261 74.547 16.5467V28.4308C74.547 29.4914 75.0144 30.1187 76.0859 30.1187C76.9864 30.1187 77.5449 29.6055 77.9781 29.1721L78.0921 29.2519C77.7729 30.0731 76.9864 31.4987 75.1056 31.4987C73.3843 31.5101 72.5978 30.3696 72.5636 28.8299ZM72.5636 28.1684V21.1999C68.3118 21.7132 63.7523 23.4467 63.7523 27.0622C63.7523 28.9098 64.8124 30.21 67.2973 30.21C69.4517 30.21 71.4579 29.2633 72.5636 28.1684Z" fill="white"/>
<path d="M59.3035 15.9653L58.9843 16.0451C57.5253 13.2053 55.9181 12.4525 53.9916 12.4525C51.5181 12.4525 49.7855 13.8326 49.7855 15.9197C49.7855 18.3946 52.031 19.1815 54.7782 20.2536C57.4911 21.3143 60.3636 22.6145 60.3636 26.2413C60.3636 29.5488 58.004 31.6359 53.4445 31.6359C50.9253 31.6359 49.3181 31.0086 48.2466 30.4954L47.8477 26.4808L48.1668 26.401C49.4663 29.5488 51.1989 30.9288 53.9916 30.9288C57.1377 30.9288 58.7564 29.1154 58.7564 26.9142C58.7564 24.3138 56.3968 23.2532 53.7979 22.3065C51.1647 21.3599 48.1668 20.0597 48.1668 16.6724C48.1668 13.0114 51.4725 11.7568 54.6642 11.7568C56.2828 11.7568 57.8559 12.0306 58.916 12.464L59.3035 15.9653Z" fill="white"/>
<path d="M33.8642 31.0431H30.171V30.9632C30.9233 29.5832 31.0373 28.4427 31.0373 26.3556V16.627C31.0373 15.0873 30.2166 14.2662 29.3047 13.6731V13.5933L32.8497 11.5518V15.133L33.0093 15.1672C35.0155 12.8063 37.5689 11.7456 40.088 11.7456C43.747 11.7456 45.5937 13.9126 45.5937 17.4938V26.3099C45.5937 28.4769 45.6279 29.6516 46.46 30.9518V31.0316H42.7667V30.9518C43.5191 29.5718 43.6331 28.3515 43.6331 26.3442V17.9272C43.6331 15.2926 42.5274 13.2853 39.2217 13.2853C37.1357 13.2853 34.6963 14.0381 33.0093 15.8857V26.3213C33.0093 28.4085 33.0435 29.5832 33.8756 30.9632V31.0431H33.8642Z" fill="white"/>
<path d="M7.38164 21.6683V7.21809C7.38164 4.93707 7.10806 4.02466 5.80859 2.30249V2.22266H11.0749V2.30249C10.0148 3.71672 9.50182 4.90285 9.50182 7.21809V21.5429C9.50182 28.3175 13.5598 30.7582 18.4727 30.7582C25.2436 30.7582 27.1701 26.1962 27.1701 21.1893V7.73131C27.1701 5.25641 26.6571 4.18433 24.3431 2.30249V2.22266H30.4415V2.30249C28.4239 4.19574 27.9908 5.25641 27.9908 7.73131V21.1551C27.9908 26.7892 25.5514 31.625 18.1194 31.625C12.2945 31.625 7.38164 28.7509 7.38164 21.6683Z" fill="white"/>
<path d="M2.78967 4.70862C2.13993 3.5339 2.63008 2.38198 4.20312 0.579978L4.00934 0.363281C1.72957 2.29074 0.4415 4.17258 1.4218 6.21409C1.62698 6.63608 1.91195 6.96683 2.25392 7.21774L4.22592 6.08863C4.16893 6.03161 3.20002 5.42714 2.78967 4.70862Z" fill="white"/>
</svg>
