<svg width="19" height="25" viewBox="0 0 19 25" fill="none" xmlns="http://www.w3.org/2000/svg">
<path d="M9.875 5.07422C9.05915 5.07422 8.26163 5.31615 7.58327 5.76941C6.90492 6.22267 6.37621 6.8669 6.064 7.62065C5.75179 8.37439 5.6701 9.20379 5.82926 10.004C5.98843 10.8041 6.38129 11.5391 6.95819 12.116C7.53508 12.6929 8.27008 13.0858 9.07025 13.245C9.87043 13.4041 10.6998 13.3224 11.4536 13.0102C12.2073 12.698 12.8516 12.1693 13.3048 11.4909C13.7581 10.8126 14 10.0151 14 9.19922C13.9988 8.10558 13.5638 7.05709 12.7904 6.28377C12.0171 5.51045 10.9686 5.07546 9.875 5.07422ZM9.875 12.5742C9.20749 12.5742 8.55497 12.3763 7.99995 12.0054C7.44494 11.6346 7.01235 11.1075 6.75691 10.4908C6.50146 9.87407 6.43463 9.19547 6.56485 8.54079C6.69508 7.8861 7.01651 7.28474 7.48852 6.81273C7.96052 6.34073 8.56189 6.01929 9.21657 5.88907C9.87126 5.75884 10.5499 5.82568 11.1666 6.08113C11.7833 6.33657 12.3104 6.76915 12.6812 7.32417C13.0521 7.87919 13.25 8.53171 13.25 9.19922C13.249 10.094 12.8931 10.9519 12.2604 11.5846C11.6277 12.2173 10.7698 12.5732 9.875 12.5742Z" fill="black"/>
<path d="M9.875 0.199219C7.48889 0.201948 5.20129 1.15104 3.51405 2.83827C1.82682 4.52551 0.877729 6.81311 0.875 9.19922C0.875 15.6601 9.25902 23.7539 9.61572 24.0952C9.68554 24.162 9.77841 24.1992 9.875 24.1992C9.97159 24.1992 10.0645 24.162 10.1343 24.0952C10.491 23.7539 18.875 15.6601 18.875 9.19922C18.8723 6.81311 17.9232 4.52551 16.2359 2.83827C14.5487 1.15104 12.2611 0.201948 9.875 0.199219V0.199219ZM9.875 23.297C8.44786 21.8652 1.625 14.7283 1.625 9.19922C1.625 7.01118 2.49419 4.91276 4.04137 3.36559C5.58854 1.81841 7.68696 0.949219 9.875 0.949219C12.063 0.949219 14.1615 1.81841 15.7086 3.36559C17.2558 4.91276 18.125 7.01118 18.125 9.19922C18.125 14.7255 11.3021 21.8646 9.875 23.297Z" fill="black"/>
</svg>
