<svg width="24" height="24" viewBox="0 0 24 24" fill="none" xmlns="http://www.w3.org/2000/svg">
<path fill-rule="evenodd" clip-rule="evenodd" d="M12 23C18.0751 23 23 18.0751 23 12C23 5.92487 18.0751 1 12 1C5.92487 1 1 5.92487 1 12C1 18.0751 5.92487 23 12 23ZM12 24C18.6274 24 24 18.6274 24 12C24 5.37258 18.6274 0 12 0C5.37258 0 0 5.37258 0 12C0 18.6274 5.37258 24 12 24Z" fill="black"/>
<path d="M14.8363 9.876C14.8363 8.124 13.4683 7.26 12.0763 7.26C10.7323 7.26 9.37627 8.064 9.17227 9.648L9.98827 9.972C10.2643 8.676 11.2003 8.1 12.0883 8.1C13.0003 8.1 13.8763 8.724 13.8763 9.816C13.8763 10.212 13.7083 10.584 13.4443 10.872C12.6283 11.772 10.9723 11.256 10.9723 13.86H11.9323C11.9323 11.904 13.1203 12.552 14.1763 11.496C14.6083 11.064 14.8363 10.476 14.8363 9.876ZM11.8603 15.06H10.9003V16.5H11.8603V15.06Z" fill="black"/>
</svg>
