<svg width="26" height="30" viewBox="0 0 26 30" fill="none" xmlns="http://www.w3.org/2000/svg">
<path d="M25.1 9V8.9H25H19.1V7C19.1 3.63106 16.3689 0.9 13 0.9C9.63107 0.9 6.9 3.63106 6.9 7V8.9H1H0.9V9V17C0.9 23.6826 6.31735 29.1 13 29.1C19.6826 29.1 25.1 23.6826 25.1 17V9ZM17.5667 7V8.9H8.4333V7C8.4333 4.4779 10.4779 2.43333 13 2.43333C15.5221 2.43333 17.5667 4.4779 17.5667 7ZM23.5667 10.4333V17C23.5667 22.8358 18.8358 27.5667 13 27.5667C7.16423 27.5667 2.43333 22.8358 2.43333 17V10.4333H23.5667Z" fill="white" stroke="white" stroke-width="0.2"/>
</svg>
