<?xml version="1.0" encoding="utf-8"?>
<!-- Generator: Adobe Illustrator 26.2.1, SVG Export Plug-In . SVG Version: 6.00 Build 0)  -->
<svg version="1.1" id="Calque_1" xmlns="http://www.w3.org/2000/svg" xmlns:xlink="http://www.w3.org/1999/xlink" x="0px" y="0px"
	 viewBox="0 0 700 700" style="enable-background:new 0 0 700 700;" xml:space="preserve">
<g>
	<path d="M557.2,199.1H446.3v-39.2c0-14.6-11.8-26.9-26.9-26.9H280.6c-14.6,0-26.9,11.8-26.9,26.9v39.2H142.8v22.4h45.4V539
		c0,15.7,12.3,28,28,28h267.7c15.7,0,28-12.3,28-28V221.5h45.4V199.1z M276.1,159.3c0-2.2,1.7-4.5,4.5-4.5h138.9
		c2.2,0,4.5,1.7,4.5,4.5v39.2H276.1L276.1,159.3z M489.4,538.4c0,3.4-2.2,5.6-5.6,5.6H216.2c-3.4,0-5.6-2.2-5.6-5.6v-317h278.9
		L489.4,538.4z"/>
	<path d="M338.8,280.3h22.4v201h-22.4V280.3z"/>
	<path d="M400.4,280.3h22.4v201h-22.4V280.3z"/>
	<path d="M277.2,280.3h22.4v201h-22.4V280.3z"/>
</g>
</svg>
