<svg width="16" height="16" viewBox="0 0 16 16" fill="none" xmlns="http://www.w3.org/2000/svg">
<path fill-rule="evenodd" clip-rule="evenodd" d="M7.30098 5.704C8.30629 5.21942 9 4.19072 9 3C9 1.34315 7.65685 0 6 0C4.34315 0 3 1.34315 3 3C3 4.19072 3.69371 5.21942 4.69902 5.704C2.0525 6.01762 0 8.26912 0 11V14H12V11C12 8.26912 9.9475 6.01762 7.30098 5.704ZM8.33333 3C8.33333 4.28866 7.28866 5.33333 6 5.33333C4.71134 5.33333 3.66667 4.28866 3.66667 3C3.66667 1.71134 4.71134 0.666667 6 0.666667C7.28866 0.666667 8.33333 1.71134 8.33333 3ZM0.666667 13.3333V11C0.666667 8.42267 2.756 6.33333 5.33333 6.33333H6.66667C9.244 6.33333 11.3333 8.42267 11.3333 11V13.3333H0.666667Z" fill="black"/>
</svg>
